<svg width="1240" height="500" viewBox="0 0 1240 500" fill="none" xmlns="http://www.w3.org/2000/svg">
<rect width="1240" height="500" rx="50" fill="#2D76F9"/>
<mask id="mask0_1:97" style="mask-type:alpha" maskUnits="userSpaceOnUse" x="0" y="0" width="1240" height="500">
<rect width="1240" height="500" rx="50" fill="#2D76F9"/>
</mask>
<g mask="url(#mask0_1:97)">
<circle cx="1137" cy="14" r="342" stroke="#2170FF" stroke-width="150"/>
<circle cx="103" cy="506" r="342" stroke="#2170FF" stroke-width="150"/>
<circle cx="1240" cy="500" r="164.5" stroke="#4587FF" stroke-width="75"/>
<circle r="164.5" stroke="#4587FF" stroke-width="75"/>
</g>
<path d="M408.436 356.49C409.768 356.49 410.932 356.748 411.928 357.264C412.936 357.768 413.71 358.5 414.25 359.46C414.802 360.408 415.078 361.518 415.078 362.79C415.078 364.062 414.802 365.166 414.25 366.102C413.71 367.038 412.936 367.758 411.928 368.262C410.932 368.754 409.768 369 408.436 369H404.35V356.49H408.436ZM408.436 367.326C409.9 367.326 411.022 366.93 411.802 366.138C412.582 365.346 412.972 364.23 412.972 362.79C412.972 361.338 412.582 360.204 411.802 359.388C411.022 358.572 409.9 358.164 408.436 358.164H406.402V367.326H408.436ZM421.414 369.162C420.478 369.162 419.632 368.952 418.876 368.532C418.12 368.1 417.526 367.5 417.094 366.732C416.662 365.952 416.446 365.052 416.446 364.032C416.446 363.024 416.668 362.13 417.112 361.35C417.556 360.57 418.162 359.97 418.93 359.55C419.698 359.13 420.556 358.92 421.504 358.92C422.452 358.92 423.31 359.13 424.078 359.55C424.846 359.97 425.452 360.57 425.896 361.35C426.34 362.13 426.562 363.024 426.562 364.032C426.562 365.04 426.334 365.934 425.878 366.714C425.422 367.494 424.798 368.1 424.006 368.532C423.226 368.952 422.362 369.162 421.414 369.162ZM421.414 367.38C421.942 367.38 422.434 367.254 422.89 367.002C423.358 366.75 423.736 366.372 424.024 365.868C424.312 365.364 424.456 364.752 424.456 364.032C424.456 363.312 424.318 362.706 424.042 362.214C423.766 361.71 423.4 361.332 422.944 361.08C422.488 360.828 421.996 360.702 421.468 360.702C420.94 360.702 420.448 360.828 419.992 361.08C419.548 361.332 419.194 361.71 418.93 362.214C418.666 362.706 418.534 363.312 418.534 364.032C418.534 365.1 418.804 365.928 419.344 366.516C419.896 367.092 420.586 367.38 421.414 367.38ZM441.91 359.082L438.832 369H436.672L434.674 361.674L432.676 369H430.516L427.42 359.082H429.508L431.578 367.056L433.684 359.082H435.826L437.842 367.02L439.894 359.082H441.91ZM448.448 358.92C449.228 358.92 449.924 359.082 450.536 359.406C451.16 359.73 451.646 360.21 451.994 360.846C452.342 361.482 452.516 362.25 452.516 363.15V369H450.482V363.456C450.482 362.568 450.26 361.89 449.816 361.422C449.372 360.942 448.766 360.702 447.998 360.702C447.23 360.702 446.618 360.942 446.162 361.422C445.718 361.89 445.496 362.568 445.496 363.456V369H443.444V359.082H445.496V360.216C445.832 359.808 446.258 359.49 446.774 359.262C447.302 359.034 447.86 358.92 448.448 358.92ZM457.185 355.68V369H455.133V355.68H457.185ZM464.181 369.162C463.245 369.162 462.399 368.952 461.643 368.532C460.887 368.1 460.293 367.5 459.861 366.732C459.429 365.952 459.213 365.052 459.213 364.032C459.213 363.024 459.435 362.13 459.879 361.35C460.323 360.57 460.929 359.97 461.697 359.55C462.465 359.13 463.323 358.92 464.271 358.92C465.219 358.92 466.077 359.13 466.845 359.55C467.613 359.97 468.219 360.57 468.663 361.35C469.107 362.13 469.329 363.024 469.329 364.032C469.329 365.04 469.101 365.934 468.645 366.714C468.189 367.494 467.565 368.1 466.773 368.532C465.993 368.952 465.129 369.162 464.181 369.162ZM464.181 367.38C464.709 367.38 465.201 367.254 465.657 367.002C466.125 366.75 466.503 366.372 466.791 365.868C467.079 365.364 467.223 364.752 467.223 364.032C467.223 363.312 467.085 362.706 466.809 362.214C466.533 361.71 466.167 361.332 465.711 361.08C465.255 360.828 464.763 360.702 464.235 360.702C463.707 360.702 463.215 360.828 462.759 361.08C462.315 361.332 461.961 361.71 461.697 362.214C461.433 362.706 461.301 363.312 461.301 364.032C461.301 365.1 461.571 365.928 462.111 366.516C462.663 367.092 463.353 367.38 464.181 367.38ZM470.674 363.996C470.674 363 470.878 362.118 471.286 361.35C471.706 360.582 472.27 359.988 472.978 359.568C473.698 359.136 474.49 358.92 475.354 358.92C476.134 358.92 476.812 359.076 477.388 359.388C477.976 359.688 478.444 360.066 478.792 360.522V359.082H480.862V369H478.792V367.524C478.444 367.992 477.97 368.382 477.37 368.694C476.77 369.006 476.086 369.162 475.318 369.162C474.466 369.162 473.686 368.946 472.978 368.514C472.27 368.07 471.706 367.458 471.286 366.678C470.878 365.886 470.674 364.992 470.674 363.996ZM478.792 364.032C478.792 363.348 478.648 362.754 478.36 362.25C478.084 361.746 477.718 361.362 477.262 361.098C476.806 360.834 476.314 360.702 475.786 360.702C475.258 360.702 474.766 360.834 474.31 361.098C473.854 361.35 473.482 361.728 473.194 362.232C472.918 362.724 472.78 363.312 472.78 363.996C472.78 364.68 472.918 365.28 473.194 365.796C473.482 366.312 473.854 366.708 474.31 366.984C474.778 367.248 475.27 367.38 475.786 367.38C476.314 367.38 476.806 367.248 477.262 366.984C477.718 366.72 478.084 366.336 478.36 365.832C478.648 365.316 478.792 364.716 478.792 364.032ZM482.873 363.996C482.873 363 483.077 362.118 483.485 361.35C483.905 360.582 484.469 359.988 485.177 359.568C485.897 359.136 486.695 358.92 487.571 358.92C488.219 358.92 488.855 359.064 489.479 359.352C490.115 359.628 490.619 360 490.991 360.468V355.68H493.061V369H490.991V367.506C490.655 367.986 490.187 368.382 489.587 368.694C488.999 369.006 488.321 369.162 487.553 369.162C486.689 369.162 485.897 368.946 485.177 368.514C484.469 368.07 483.905 367.458 483.485 366.678C483.077 365.886 482.873 364.992 482.873 363.996ZM490.991 364.032C490.991 363.348 490.847 362.754 490.559 362.25C490.283 361.746 489.917 361.362 489.461 361.098C489.005 360.834 488.513 360.702 487.985 360.702C487.457 360.702 486.965 360.834 486.509 361.098C486.053 361.35 485.681 361.728 485.393 362.232C485.117 362.724 484.979 363.312 484.979 363.996C484.979 364.68 485.117 365.28 485.393 365.796C485.681 366.312 486.053 366.708 486.509 366.984C486.977 367.248 487.469 367.38 487.985 367.38C488.513 367.38 489.005 367.248 489.461 366.984C489.917 366.72 490.283 366.336 490.559 365.832C490.847 365.316 490.991 364.716 490.991 364.032ZM507.974 366.444H502.736L501.836 369H499.694L504.176 356.472H506.552L511.034 369H508.874L507.974 366.444ZM507.398 364.77L505.364 358.956L503.312 364.77H507.398ZM515.035 360.54C515.383 360.084 515.857 359.7 516.457 359.388C517.057 359.076 517.735 358.92 518.491 358.92C519.355 358.92 520.141 359.136 520.849 359.568C521.569 359.988 522.133 360.582 522.541 361.35C522.949 362.118 523.153 363 523.153 363.996C523.153 364.992 522.949 365.886 522.541 366.678C522.133 367.458 521.569 368.07 520.849 368.514C520.141 368.946 519.355 369.162 518.491 369.162C517.735 369.162 517.063 369.012 516.475 368.712C515.887 368.4 515.407 368.016 515.035 367.56V373.716H512.983V359.082H515.035V360.54ZM521.065 363.996C521.065 363.312 520.921 362.724 520.633 362.232C520.357 361.728 519.985 361.35 519.517 361.098C519.061 360.834 518.569 360.702 518.041 360.702C517.525 360.702 517.033 360.834 516.565 361.098C516.109 361.362 515.737 361.746 515.449 362.25C515.173 362.754 515.035 363.348 515.035 364.032C515.035 364.716 515.173 365.316 515.449 365.832C515.737 366.336 516.109 366.72 516.565 366.984C517.033 367.248 517.525 367.38 518.041 367.38C518.569 367.38 519.061 367.248 519.517 366.984C519.985 366.708 520.357 366.312 520.633 365.796C520.921 365.28 521.065 364.68 521.065 363.996ZM527.234 360.54C527.582 360.084 528.056 359.7 528.656 359.388C529.256 359.076 529.934 358.92 530.69 358.92C531.554 358.92 532.34 359.136 533.048 359.568C533.768 359.988 534.332 360.582 534.74 361.35C535.148 362.118 535.352 363 535.352 363.996C535.352 364.992 535.148 365.886 534.74 366.678C534.332 367.458 533.768 368.07 533.048 368.514C532.34 368.946 531.554 369.162 530.69 369.162C529.934 369.162 529.262 369.012 528.674 368.712C528.086 368.4 527.606 368.016 527.234 367.56V373.716H525.182V359.082H527.234V360.54ZM533.264 363.996C533.264 363.312 533.12 362.724 532.832 362.232C532.556 361.728 532.184 361.35 531.716 361.098C531.26 360.834 530.768 360.702 530.24 360.702C529.724 360.702 529.232 360.834 528.764 361.098C528.308 361.362 527.936 361.746 527.648 362.25C527.372 362.754 527.234 363.348 527.234 364.032C527.234 364.716 527.372 365.316 527.648 365.832C527.936 366.336 528.308 366.72 528.764 366.984C529.232 367.248 529.724 367.38 530.24 367.38C530.768 367.38 531.26 367.248 531.716 366.984C532.184 366.708 532.556 366.312 532.832 365.796C533.12 365.28 533.264 364.68 533.264 363.996Z" fill="#2D76F9"/>
</svg>
