<svg width="350" height="469" viewBox="0 0 350 469" fill="none" xmlns="http://www.w3.org/2000/svg">
<rect width="350" height="469" rx="25" fill="#2D76F9"/>
<mask id="mask0_1:274" style="mask-type:alpha" maskUnits="userSpaceOnUse" x="0" y="0" width="350" height="469">
<rect width="350" height="469" rx="25" fill="#2D76F9"/>
</mask>
<g mask="url(#mask0_1:274)">
<circle cx="350" cy="469" r="126" stroke="#4587FF" stroke-width="50"/>
<circle r="126" stroke="#4587FF" stroke-width="50"/>
</g>
<path d="M113.436 275.49C114.768 275.49 115.932 275.748 116.928 276.264C117.936 276.768 118.71 277.5 119.25 278.46C119.802 279.408 120.078 280.518 120.078 281.79C120.078 283.062 119.802 284.166 119.25 285.102C118.71 286.038 117.936 286.758 116.928 287.262C115.932 287.754 114.768 288 113.436 288H109.35V275.49H113.436ZM113.436 286.326C114.9 286.326 116.022 285.93 116.802 285.138C117.582 284.346 117.972 283.23 117.972 281.79C117.972 280.338 117.582 279.204 116.802 278.388C116.022 277.572 114.9 277.164 113.436 277.164H111.402V286.326H113.436ZM126.414 288.162C125.478 288.162 124.632 287.952 123.876 287.532C123.12 287.1 122.526 286.5 122.094 285.732C121.662 284.952 121.446 284.052 121.446 283.032C121.446 282.024 121.668 281.13 122.112 280.35C122.556 279.57 123.162 278.97 123.93 278.55C124.698 278.13 125.556 277.92 126.504 277.92C127.452 277.92 128.31 278.13 129.078 278.55C129.846 278.97 130.452 279.57 130.896 280.35C131.34 281.13 131.562 282.024 131.562 283.032C131.562 284.04 131.334 284.934 130.878 285.714C130.422 286.494 129.798 287.1 129.006 287.532C128.226 287.952 127.362 288.162 126.414 288.162ZM126.414 286.38C126.942 286.38 127.434 286.254 127.89 286.002C128.358 285.75 128.736 285.372 129.024 284.868C129.312 284.364 129.456 283.752 129.456 283.032C129.456 282.312 129.318 281.706 129.042 281.214C128.766 280.71 128.4 280.332 127.944 280.08C127.488 279.828 126.996 279.702 126.468 279.702C125.94 279.702 125.448 279.828 124.992 280.08C124.548 280.332 124.194 280.71 123.93 281.214C123.666 281.706 123.534 282.312 123.534 283.032C123.534 284.1 123.804 284.928 124.344 285.516C124.896 286.092 125.586 286.38 126.414 286.38ZM146.91 278.082L143.832 288H141.672L139.674 280.674L137.676 288H135.516L132.42 278.082H134.508L136.578 286.056L138.684 278.082H140.826L142.842 286.02L144.894 278.082H146.91ZM153.448 277.92C154.228 277.92 154.924 278.082 155.536 278.406C156.16 278.73 156.646 279.21 156.994 279.846C157.342 280.482 157.516 281.25 157.516 282.15V288H155.482V282.456C155.482 281.568 155.26 280.89 154.816 280.422C154.372 279.942 153.766 279.702 152.998 279.702C152.23 279.702 151.618 279.942 151.162 280.422C150.718 280.89 150.496 281.568 150.496 282.456V288H148.444V278.082H150.496V279.216C150.832 278.808 151.258 278.49 151.774 278.262C152.302 278.034 152.86 277.92 153.448 277.92ZM162.185 274.68V288H160.133V274.68H162.185ZM169.181 288.162C168.245 288.162 167.399 287.952 166.643 287.532C165.887 287.1 165.293 286.5 164.861 285.732C164.429 284.952 164.213 284.052 164.213 283.032C164.213 282.024 164.435 281.13 164.879 280.35C165.323 279.57 165.929 278.97 166.697 278.55C167.465 278.13 168.323 277.92 169.271 277.92C170.219 277.92 171.077 278.13 171.845 278.55C172.613 278.97 173.219 279.57 173.663 280.35C174.107 281.13 174.329 282.024 174.329 283.032C174.329 284.04 174.101 284.934 173.645 285.714C173.189 286.494 172.565 287.1 171.773 287.532C170.993 287.952 170.129 288.162 169.181 288.162ZM169.181 286.38C169.709 286.38 170.201 286.254 170.657 286.002C171.125 285.75 171.503 285.372 171.791 284.868C172.079 284.364 172.223 283.752 172.223 283.032C172.223 282.312 172.085 281.706 171.809 281.214C171.533 280.71 171.167 280.332 170.711 280.08C170.255 279.828 169.763 279.702 169.235 279.702C168.707 279.702 168.215 279.828 167.759 280.08C167.315 280.332 166.961 280.71 166.697 281.214C166.433 281.706 166.301 282.312 166.301 283.032C166.301 284.1 166.571 284.928 167.111 285.516C167.663 286.092 168.353 286.38 169.181 286.38ZM175.674 282.996C175.674 282 175.878 281.118 176.286 280.35C176.706 279.582 177.27 278.988 177.978 278.568C178.698 278.136 179.49 277.92 180.354 277.92C181.134 277.92 181.812 278.076 182.388 278.388C182.976 278.688 183.444 279.066 183.792 279.522V278.082H185.862V288H183.792V286.524C183.444 286.992 182.97 287.382 182.37 287.694C181.77 288.006 181.086 288.162 180.318 288.162C179.466 288.162 178.686 287.946 177.978 287.514C177.27 287.07 176.706 286.458 176.286 285.678C175.878 284.886 175.674 283.992 175.674 282.996ZM183.792 283.032C183.792 282.348 183.648 281.754 183.36 281.25C183.084 280.746 182.718 280.362 182.262 280.098C181.806 279.834 181.314 279.702 180.786 279.702C180.258 279.702 179.766 279.834 179.31 280.098C178.854 280.35 178.482 280.728 178.194 281.232C177.918 281.724 177.78 282.312 177.78 282.996C177.78 283.68 177.918 284.28 178.194 284.796C178.482 285.312 178.854 285.708 179.31 285.984C179.778 286.248 180.27 286.38 180.786 286.38C181.314 286.38 181.806 286.248 182.262 285.984C182.718 285.72 183.084 285.336 183.36 284.832C183.648 284.316 183.792 283.716 183.792 283.032ZM187.873 282.996C187.873 282 188.077 281.118 188.485 280.35C188.905 279.582 189.469 278.988 190.177 278.568C190.897 278.136 191.695 277.92 192.571 277.92C193.219 277.92 193.855 278.064 194.479 278.352C195.115 278.628 195.619 279 195.991 279.468V274.68H198.061V288H195.991V286.506C195.655 286.986 195.187 287.382 194.587 287.694C193.999 288.006 193.321 288.162 192.553 288.162C191.689 288.162 190.897 287.946 190.177 287.514C189.469 287.07 188.905 286.458 188.485 285.678C188.077 284.886 187.873 283.992 187.873 282.996ZM195.991 283.032C195.991 282.348 195.847 281.754 195.559 281.25C195.283 280.746 194.917 280.362 194.461 280.098C194.005 279.834 193.513 279.702 192.985 279.702C192.457 279.702 191.965 279.834 191.509 280.098C191.053 280.35 190.681 280.728 190.393 281.232C190.117 281.724 189.979 282.312 189.979 282.996C189.979 283.68 190.117 284.28 190.393 284.796C190.681 285.312 191.053 285.708 191.509 285.984C191.977 286.248 192.469 286.38 192.985 286.38C193.513 286.38 194.005 286.248 194.461 285.984C194.917 285.72 195.283 285.336 195.559 284.832C195.847 284.316 195.991 283.716 195.991 283.032ZM212.974 285.444H207.736L206.836 288H204.694L209.176 275.472H211.552L216.034 288H213.874L212.974 285.444ZM212.398 283.77L210.364 277.956L208.312 283.77H212.398ZM220.035 279.54C220.383 279.084 220.857 278.7 221.457 278.388C222.057 278.076 222.735 277.92 223.491 277.92C224.355 277.92 225.141 278.136 225.849 278.568C226.569 278.988 227.133 279.582 227.541 280.35C227.949 281.118 228.153 282 228.153 282.996C228.153 283.992 227.949 284.886 227.541 285.678C227.133 286.458 226.569 287.07 225.849 287.514C225.141 287.946 224.355 288.162 223.491 288.162C222.735 288.162 222.063 288.012 221.475 287.712C220.887 287.4 220.407 287.016 220.035 286.56V292.716H217.983V278.082H220.035V279.54ZM226.065 282.996C226.065 282.312 225.921 281.724 225.633 281.232C225.357 280.728 224.985 280.35 224.517 280.098C224.061 279.834 223.569 279.702 223.041 279.702C222.525 279.702 222.033 279.834 221.565 280.098C221.109 280.362 220.737 280.746 220.449 281.25C220.173 281.754 220.035 282.348 220.035 283.032C220.035 283.716 220.173 284.316 220.449 284.832C220.737 285.336 221.109 285.72 221.565 285.984C222.033 286.248 222.525 286.38 223.041 286.38C223.569 286.38 224.061 286.248 224.517 285.984C224.985 285.708 225.357 285.312 225.633 284.796C225.921 284.28 226.065 283.68 226.065 282.996ZM232.234 279.54C232.582 279.084 233.056 278.7 233.656 278.388C234.256 278.076 234.934 277.92 235.69 277.92C236.554 277.92 237.34 278.136 238.048 278.568C238.768 278.988 239.332 279.582 239.74 280.35C240.148 281.118 240.352 282 240.352 282.996C240.352 283.992 240.148 284.886 239.74 285.678C239.332 286.458 238.768 287.07 238.048 287.514C237.34 287.946 236.554 288.162 235.69 288.162C234.934 288.162 234.262 288.012 233.674 287.712C233.086 287.4 232.606 287.016 232.234 286.56V292.716H230.182V278.082H232.234V279.54ZM238.264 282.996C238.264 282.312 238.12 281.724 237.832 281.232C237.556 280.728 237.184 280.35 236.716 280.098C236.26 279.834 235.768 279.702 235.24 279.702C234.724 279.702 234.232 279.834 233.764 280.098C233.308 280.362 232.936 280.746 232.648 281.25C232.372 281.754 232.234 282.348 232.234 283.032C232.234 283.716 232.372 284.316 232.648 284.832C232.936 285.336 233.308 285.72 233.764 285.984C234.232 286.248 234.724 286.38 235.24 286.38C235.768 286.38 236.26 286.248 236.716 285.984C237.184 285.708 237.556 285.312 237.832 284.796C238.12 284.28 238.264 283.68 238.264 282.996Z" fill="#2D76F9"/>
</svg>
